<svg width="18" height="18" viewBox="0 0 18 18" fill="none" xmlns="http://www.w3.org/2000/svg">
<path d="M12 15.7502V14.2502C12 12.5944 10.6557 11.2502 9 11.2502H4.5C2.84425 11.2502 1.5 12.5944 1.5 14.2502V15.7502M12 2.34619C13.3232 2.68921 14.2471 3.88329 14.2471 5.25019C14.2471 6.61709 13.3232 7.81117 12 8.15419M16.5 15.7502V14.2502C16.499 12.883 15.5737 11.6895 14.25 11.3477" stroke="#0B4F8A" stroke-width="1.5" stroke-linecap="round" stroke-linejoin="round"/>
<path d="M3.75 5.25C3.75 6.90575 5.09425 8.25 6.75 8.25C8.40575 8.25 9.75 6.90575 9.75 5.25C9.75 3.59425 8.40575 2.25 6.75 2.25C5.09425 2.25 3.75 3.59425 3.75 5.25V5.25" stroke="#0B4F8A" stroke-width="1.5" stroke-linecap="round" stroke-linejoin="round"/>
</svg>
